<svg id="visual" viewBox="0 0 900 600" width="900" height="600" xmlns="http://www.w3.org/2000/svg" xmlns:xlink="http://www.w3.org/1999/xlink" version="1.1"><rect x="0" y="0" width="900" height="600" fill="#002233"></rect><path d="M0 488L21.5 481.2C43 474.3 86 460.7 128.8 466C171.7 471.3 214.3 495.7 257.2 506.5C300 517.3 343 514.7 385.8 488.2C428.7 461.7 471.3 411.3 514.2 386.3C557 361.3 600 361.7 642.8 389.8C685.7 418 728.3 474 771.2 481.2C814 488.3 857 446.7 878.5 425.8L900 405L900 601L878.5 601C857 601 814 601 771.2 601C728.3 601 685.7 601 642.8 601C600 601 557 601 514.2 601C471.3 601 428.7 601 385.8 601C343 601 300 601 257.2 601C214.3 601 171.7 601 128.8 601C86 601 43 601 21.5 601L0 601Z" fill="#0066FF" stroke-linecap="round" stroke-linejoin="miter"></path></svg>